<svg xmlns="http://www.w3.org/2000/svg"  viewBox="0 0 50 50" width="50px" height="50px"><path d="M 37.359375 5.578125 C 37.123875 5.593125 36.893797 5.6896875 36.716797 5.8671875 C 36.361797 6.2221875 36.325813 6.7875469 36.632812 7.1855469 C 39.489812 10.888547 41 15.32 41 20 C 41 31.579 31.579 41 20 41 C 15.32 41 10.8905 39.489813 7.1875 36.632812 C 6.7895 36.325812 6.2261406 36.360797 5.8691406 36.716797 C 5.5141406 37.071797 5.4762031 37.636203 5.7832031 38.033203 C 10.179203 43.731203 16.819 47 24 47 C 36.683 47 47 36.683 47 24 C 47 16.82 43.732156 10.179203 38.035156 5.7832031 C 37.836156 5.6297031 37.594875 5.563125 37.359375 5.578125 z M 10.210938 9 C 9.9489375 9 9.6977188 9.1021563 9.5117188 9.2851562 C 6.6027187 12.133156 5 15.939 5 20 C 5 25.288 7.8457812 30.242641 12.425781 32.931641 C 12.582781 33.024641 12.757641 33.070312 12.931641 33.070312 C 13.190641 33.070312 13.446672 32.969344 13.638672 32.777344 C 13.960672 32.455344 14.023969 31.9555 13.792969 31.5625 C 12.619969 29.5655 12 27.297 12 25 C 12 21.585 13.318844 18.356156 15.714844 15.910156 C 15.897844 15.723156 16 15.472937 16 15.210938 L 16 10 C 16 9.448 15.553 9 15 9 L 10.210938 9 z M 26 9 C 25.447 9 25 9.448 25 10 L 25 16.5 C 25 18.43 23.43 20 21.5 20 C 21.441 20 21.385125 19.988469 21.328125 19.980469 L 21.148438 19.958984 C 20.850438 19.925984 20.551844 20.033094 20.339844 20.246094 C 20.126844 20.458094 20.020781 20.754688 20.050781 21.054688 C 20.337781 23.873687 22.68 26 25.5 26 C 28.532 26 31 23.533 31 20.5 L 31 16 L 32 16 C 32.332 16 32.642125 15.834547 32.828125 15.560547 C 33.014125 15.285547 33.052687 14.936906 32.929688 14.628906 L 30.929688 9.6289062 C 30.776687 9.2489063 30.409 9 30 9 L 26 9 z"/></svg>